PathFileType	4	(X/Y/Z)	/Users/itak/Documents/Research/Walk-IL/dataset/trc/00164_00008.trc
DataRate	CameraRate	NumFrames	NumMarkers	Units	OrigDataRate	OrigDataStartFrame	OrigNumFrames
100.000000	100.000000	4	53	mm	100.000000	0	608
Frame#	Time	RPSI			LPSI			L3			STRN			T10			C7			CLAV			RBAK			LBAK			LSHO			LUPA			LAEL			LAOL			LWTS			LWPS			LFRA			LIFD			LHPS			LHTS			RSHO			RUPA			RAEL			RAOL			RWTS			RWPS			RFRA			RIFD			RHTS			RHPS			RBHD			LFHD			RFHD			LBHD			LHIP			RHIP			RASI			LASI			LKNE			LTHI			LANK			LTIP			LTOE			LMT1			LMT5			LHEE			RKNE			RTHI			RANK			RTIP			RTOE			RMT1			RMT5			RHEE			
		X1	Y1	Z1	X2	Y2	Z2	X3	Y3	Z3	X4	Y4	Z4	X5	Y5	Z5	X6	Y6	Z6	X7	Y7	Z7	X8	Y8	Z8	X9	Y9	Z9	X10	Y10	Z10	X11	Y11	Z11	X12	Y12	Z12	X13	Y13	Z13	X14	Y14	Z14	X15	Y15	Z15	X16	Y16	Z16	X17	Y17	Z17	X18	Y18	Z18	X19	Y19	Z19	X20	Y20	Z20	X21	Y21	Z21	X22	Y22	Z22	X23	Y23	Z23	X24	Y24	Z24	X25	Y25	Z25	X26	Y26	Z26	X27	Y27	Z27	X28	Y28	Z28	X29	Y29	Z29	X30	Y30	Z30	X31	Y31	Z31	X32	Y32	Z32	X33	Y33	Z33	X34	Y34	Z34	X35	Y35	Z35	X36	Y36	Z36	X37	Y37	Z37	X38	Y38	Z38	X39	Y39	Z39	X40	Y40	Z40	X41	Y41	Z41	X42	Y42	Z42	X43	Y43	Z43	X44	Y44	Z44	X45	Y45	Z45	X46	Y46	Z46	X47	Y47	Z47	X48	Y48	Z48	X49	Y49	Z49	X50	Y50	Z50	X51	Y51	Z51	X52	Y52	Z52	X53	Y53	Z53	

1	0	-1949.812255859375	1057.067260742188	-46.03592681884766	-1939.6494140625	1054.919799804688	-169.0863189697266	-1943.273315429688	1091.5634765625	-105.0604782104492	-1689.002685546875	1303.521484375	-99.43856811523438	-1980.986083984375	1242.69384765625	-113.5228500366211	-1928.2109375	1515.57958984375	-120.4913635253906	-1722.683837890625	1416.455932617188	-109.4579620361328	-1991.37451171875	1336.933837890625	-16.49947929382324	-1928.955322265625	1489.834350585938	-222.6817321777344	-1847.708129882812	1479.30810546875	-297.9609069824219	-1867.376342773438	1345.509155273438	-373.6191711425781	-1835.34228515625	1126.188720703125	-386.0287475585938	-1894.147216796875	1110.762329101562	-322.449462890625	-1724.599731445312	899.7623291015625	-327.9887390136719	-1795.731201171875	875.3568115234375	-385.5800476074219	-1814.678588867188	1016.36181640625	-395.049560546875	-1708.523071289062	715.920654296875	-298.9442443847656	-1772.2158203125	806.5535278320312	-376.0371704101562	-1707.903686523438	821.4869384765625	-344.1209716796875	-1871.23583984375	1496.056884765625	61.7348747253418	-1890.46728515625	1428.218505859375	131.3263854980469	-1886.128173828125	1137.640991210938	183.9133453369141	-1893.973999023438	1131.142578125	85.46588897705078	-1731.216674804688	920.5409545898438	154.6095123291016	-1801.73291015625	898.607421875	206.3245391845703	-1854.695068359375	1066.902099609375	200.0672912597656	-1699.256103515625	734.8674926757812	131.3570861816406	-1697.076538085938	829.7785034179688	160.5257720947266	-1766.158813476562	816.69091796875	199.8826141357422	-1872.256591796875	1675.671508789062	-27.78934288024902	-1760.047729492188	1744.446899414062	-202.50537109375	-1719.233154296875	1746.304565429688	-79.01963806152344	-1920.83251953125	1680.231323242188	-155.600341796875	-1829.976928710938	989.6939086914062	-281.8507080078125	-1802.279052734375	1013.372680664062	88.09645080566406	-1716.801147460938	1039.801635742188	36.86210250854492	-1707.948364257812	1025.876953125	-220.2794647216797	-1836.613525390625	494.2802429199219	-252.8991394042969	-1819.732421875	636.1503295898438	-278.3316345214844	-1932.228393554688	42.89892196655273	-269.8372497558594	-1883.535400390625	276.744384765625	-274.9502258300781	-1713.144409179688	38.99415588378906	-256.5498046875	-1760.428833007812	37.66316604614258	-204.9552307128906	-1826.841552734375	33.65726470947266	-314.9753723144531	-1979.80859375	41.35627365112305	-196.8944244384766	-1837.478149414062	515.0558471679688	76.38693237304688	-1767.892700195312	780.769775390625	102.4083862304688	-1932.157470703125	38.63039016723633	76.37918090820312	-1832.61376953125	399.7867736816406	62.33176040649414	-1705.3046875	37.87342071533203	69.38639831542969	-1755.986572265625	38.32425689697266	16.79104614257812	-1825.61669921875	33.44493865966797	123.9089584350586	-1974.675903320312	38.4646110534668	4.374866008758545	
2	0.01	-1949.794311523438	1057.05126953125	-45.89706802368164	-1939.627685546875	1054.898071289062	-168.9802398681641	-1943.212280273438	1091.537231445312	-104.931396484375	-1688.979370117188	1303.536376953125	-99.43004608154297	-1981.008056640625	1242.638549804688	-113.3834686279297	-1928.240356445312	1515.550170898438	-120.4717712402344	-1722.706176757812	1416.462036132812	-109.4595260620117	-1991.347534179688	1336.90771484375	-16.39875221252441	-1929.041625976562	1489.777099609375	-222.6367645263672	-1847.845703125	1479.234252929688	-297.9419860839844	-1867.51806640625	1345.438110351562	-373.5585021972656	-1835.5205078125	1126.130493164062	-386.0212097167969	-1894.266357421875	1110.696655273438	-322.3768615722656	-1724.672607421875	899.7062377929688	-328.057373046875	-1795.787231445312	875.2681274414062	-385.5916137695312	-1814.858642578125	1016.313232421875	-395.0549926757812	-1708.61474609375	715.9027099609375	-299.0221252441406	-1772.295043945312	806.4920654296875	-376.0493774414062	-1707.922485351562	821.4696655273438	-344.1815795898438	-1871.22802734375	1496.070556640625	61.75484466552734	-1890.412963867188	1428.24560546875	131.3802185058594	-1885.997192382812	1137.666015625	183.9599609375	-1893.921142578125	1131.161499023438	85.48392486572266	-1731.141723632812	920.5463256835938	154.5724029541016	-1801.597534179688	898.6204223632812	206.3447723388672	-1854.527709960938	1066.924682617188	200.1226196289062	-1699.223510742188	734.8638916015625	131.3046875	-1697.01513671875	829.7538452148438	160.4622192382812	-1766.078491210938	816.7025756835938	199.88623046875	-1873.046875	1675.791137695312	-28.29044342041016	-1759.414428710938	1744.286254882812	-202.1968994140625	-1719.614135742188	1746.309204101562	-78.40496826171875	-1920.61083984375	1680.211303710938	-156.6083831787109	-1830.017700195312	989.6832275390625	-281.78271484375	-1802.480346679688	1013.358581542969	88.06205749511719	-1716.734252929688	1039.800170898438	36.94269561767578	-1707.9404296875	1025.882568359375	-220.2340698242188	-1836.611328125	494.2862854003906	-252.8484344482422	-1819.723266601562	636.1477661132812	-278.2757568359375	-1932.228515625	42.89847183227539	-269.8374328613281	-1883.539184570312	276.7447204589844	-274.9280395507812	-1713.137573242188	38.99783325195312	-256.5460815429688	-1760.426879882812	37.66617965698242	-204.9532623291016	-1826.84033203125	33.65744018554688	-314.9710998535156	-1979.818603515625	41.36580657958984	-196.8963470458984	-1837.444091796875	515.04296875	76.458251953125	-1767.81591796875	780.747314453125	102.4922637939453	-1932.15478515625	38.6236572265625	76.39212036132812	-1832.5859375	399.7745971679688	62.36847305297852	-1705.31103515625	37.87507629394531	69.38674926757812	-1755.987548828125	38.32299041748047	16.7928295135498	-1825.6142578125	33.4514274597168	123.9152526855469	-1974.677734375	38.46054458618164	4.387101173400879	
3	0.02	-1949.772216796875	1057.030395507812	-45.72133636474609	-1939.606567382812	1054.872802734375	-168.8504943847656	-1943.149047851562	1091.507690429688	-104.7763977050781	-1688.953125	1303.553100585938	-99.41542816162109	-1981.038452148438	1242.5693359375	-113.20947265625	-1928.282470703125	1515.514038085938	-120.4540100097656	-1722.738525390625	1416.46826171875	-109.457160949707	-1991.3203125	1336.874633789062	-16.28013038635254	-1929.145874023438	1489.701049804688	-222.5876007080078	-1848.010986328125	1479.142578125	-297.9210510253906	-1867.69140625	1345.347290039062	-373.4853820800781	-1835.734130859375	1126.054443359375	-386.0132751464844	-1894.40087890625	1110.6083984375	-322.2910766601562	-1724.75390625	899.637939453125	-328.1395874023438	-1795.841186523438	875.1641845703125	-385.6020812988281	-1815.057861328125	1016.248596191406	-395.058349609375	-1708.724487304688	715.8875122070312	-299.1240234375	-1772.379760742188	806.4218139648438	-376.0682678222656	-1707.951904296875	821.4410400390625	-344.2363891601562	-1871.224731445312	1496.088134765625	61.77794647216797	-1890.358154296875	1428.279541015625	131.4431457519531	-1885.842651367188	1137.701782226562	184.0184478759766	-1893.851440429688	1131.184692382812	85.51228332519531	-1731.050537109375	920.5575561523438	154.5342864990234	-1801.421630859375	898.6436157226562	206.3751068115234	-1854.336547851562	1066.956420898438	200.1892395019531	-1699.18310546875	734.8694458007812	131.2506408691406	-1696.93115234375	829.7294311523438	160.3948974609375	-1765.97607421875	816.7208251953125	199.8977661132812	-1874.038208007812	1675.94287109375	-28.91423988342285	-1758.627685546875	1744.096923828125	-201.7940979003906	-1720.111450195312	1746.318603515625	-77.62360382080078	-1920.316650390625	1680.177368164062	-157.8588104248047	-1830.066650390625	989.6693115234375	-281.6907653808594	-1802.703125	1013.334167480469	88.03298187255859	-1716.635009765625	1039.800048828125	37.06311798095703	-1707.940063476562	1025.8896484375	-220.1711730957031	-1836.605712890625	494.2927856445312	-252.7838897705078	-1819.70947265625	636.1468505859375	-278.202880859375	-1932.2275390625	42.89814758300781	-269.8369140625	-1883.54150390625	276.7452392578125	-274.9003295898438	-1713.130004882812	39.00287628173828	-256.5428466796875	-1760.427001953125	37.66876602172852	-204.9509124755859	-1826.839721679688	33.65834808349609	-314.9669189453125	-1979.827758789062	41.37280654907227	-196.8969879150391	-1837.400756835938	515.0276489257812	76.54801177978516	-1767.729125976562	780.7203369140625	102.5991973876953	-1932.152221679688	38.61428451538086	76.40775299072266	-1832.553466796875	399.7572631835938	62.41536712646484	-1705.3173828125	37.87805557250977	69.38689422607422	-1755.989135742188	38.32208633422852	16.79465484619141	-1825.610961914062	33.45716857910156	123.9218215942383	-1974.680541992188	38.45615386962891	4.401216506958008	
4	0.03	-1949.747436523438	1057.004638671875	-45.51621627807617	-1939.59033203125	1054.8466796875	-168.7039947509766	-1943.092651367188	1091.478149414062	-104.6050262451172	-1688.929321289062	1303.5703125	-99.39290618896484	-1981.076904296875	1242.489501953125	-113.0100250244141	-1928.337524414062	1515.47265625	-120.4413528442383	-1722.781860351562	1416.473510742188	-109.4491958618164	-1991.29736328125	1336.835815429688	-16.15233421325684	-1929.262329101562	1489.607543945312	-222.5400543212891	-1848.193725585938	1479.037231445312	-297.9001770019531	-1867.885498046875	1345.239990234375	-373.4046325683594	-1835.967163085938	1125.962524414062	-386.0057373046875	-1894.539184570312	1110.49951171875	-322.1987609863281	-1724.833618164062	899.5614013671875	-328.2304992675781	-1795.88427734375	875.0526123046875	-385.6102294921875	-1815.254638671875	1016.168640136719	-395.0580139160156	-1708.842895507812	715.8771362304688	-299.2457275390625	-1772.458129882812	806.3474731445312	-376.094482421875	-1707.985229492188	821.4025268554688	-344.2859497070312	-1871.229736328125	1496.109008789062	61.80217742919922	-1890.311401367188	1428.318969726562	131.5100708007812	-1885.676513671875	1137.748779296875	184.0867309570312	-1893.765380859375	1131.212158203125	85.55142974853516	-1730.947875976562	920.5767822265625	154.5014038085938	-1801.211181640625	898.6793212890625	206.4168548583984	-1854.138793945312	1066.998291015625	200.2633361816406	-1699.134887695312	734.8905639648438	131.2044677734375	-1696.823608398438	829.7112426757812	160.333984375	-1765.85400390625	816.7481079101562	199.9207611083984	-1875.189575195312	1676.120361328125	-29.63434982299805	-1757.72509765625	1743.892578125	-201.3056793212891	-1720.713500976562	1746.334350585938	-76.70411682128906	-1919.953857421875	1680.1279296875	-159.2915954589844	-1830.119384765625	989.6527709960938	-281.5762023925781	-1802.920288085938	1013.299987792969	88.0205078125	-1716.504272460938	1039.802368164062	37.22455215454102	-1707.950805664062	1025.897338867188	-220.0898742675781	-1836.595703125	494.2992553710938	-252.7077789306641	-1819.691162109375	636.1485595703125	-278.1147766113281	-1932.225830078125	42.89802932739258	-269.8359680175781	-1883.541015625	276.7455139160156	-274.8670654296875	-1713.12255859375	39.00889587402344	-256.5405578613281	-1760.429931640625	37.6702766418457	-204.9483032226562	-1826.840209960938	33.66001510620117	-314.9628601074219	-1979.834716796875	41.37598419189453	-196.8959350585938	-1837.349975585938	515.01123046875	76.65296936035156	-1767.640502929688	780.6901245117188	102.7264862060547	-1932.149780273438	38.6027946472168	76.42543029785156	-1832.5185546875	399.7351379394531	62.47125625610352	-1705.322998046875	37.88211059570312	69.38677978515625	-1755.9912109375	38.3218994140625	16.79607200622559	-1825.606689453125	33.4608154296875	123.92822265625	-1974.6845703125	38.45193099975586	4.415934085845947	
